<?xml version="1.0" encoding="UTF-8" standalone="no"?>
<!-- Created with Inkscape (http://www.inkscape.org/) -->

<svg
   xmlns:dc="http://purl.org/dc/elements/1.1/"
   xmlns:cc="http://creativecommons.org/ns#"
   xmlns:rdf="http://www.w3.org/1999/02/22-rdf-syntax-ns#"
   xmlns:svg="http://www.w3.org/2000/svg"
   xmlns="http://www.w3.org/2000/svg"
   xmlns:sodipodi="http://sodipodi.sourceforge.net/DTD/sodipodi-0.dtd"
   xmlns:inkscape="http://www.inkscape.org/namespaces/inkscape"
   id="svg2"
   version="1.1"
   inkscape:version="0.48.1 r9760"
   width="677.5"
   height="785"
   xml:space="preserve"
   sodipodi:docname="layers.pdf"><metadata
     id="metadata8"><rdf:RDF><cc:Work
         rdf:about=""><dc:format>image/svg+xml</dc:format><dc:type
           rdf:resource="http://purl.org/dc/dcmitype/StillImage" /><dc:title></dc:title></cc:Work></rdf:RDF></metadata><defs
     id="defs6" /><sodipodi:namedview
     pagecolor="#ffffff"
     bordercolor="#666666"
     borderopacity="1"
     objecttolerance="10"
     gridtolerance="10"
     guidetolerance="10"
     inkscape:pageopacity="0"
     inkscape:pageshadow="2"
     inkscape:window-width="815"
     inkscape:window-height="744"
     id="namedview4"
     showgrid="false"
     inkscape:zoom="0.42675159"
     inkscape:cx="343.43657"
     inkscape:cy="392.5"
     inkscape:window-x="0"
     inkscape:window-y="20"
     inkscape:window-maximized="0"
     inkscape:current-layer="g10" /><g
     id="g10"
     inkscape:groupmode="layer"
     inkscape:label="layers"
     transform="matrix(1.25,0,0,-1.25,0,785)"><path
       inkscape:connector-curvature="0"
       id="path14"
       style="fill:#e1e1e1;fill-opacity:1;fill-rule:evenodd;stroke:none"
       d="m 1.77227,626.447 291.60973,-1.418 0,-158.737 246.964,1.417 -1.771,-466.29181 -537.15703,0" /><path
       inkscape:connector-curvature="0"
       id="path16"
       style="fill:none;stroke:#000000;stroke-width:2.83459997;stroke-linecap:butt;stroke-linejoin:miter;stroke-miterlimit:10;stroke-opacity:1;stroke-dasharray:none"
       d="m 1.77227,626.447 291.60973,-1.418 0,-158.737 246.964,1.417 -1.771,-466.29181 -537.15703,0 0.3543,625.02981 z" /><path
       inkscape:connector-curvature="0"
       id="path18"
       style="fill:#ffffff;fill-opacity:1;fill-rule:evenodd;stroke:none"
       d="m 35.7875,107.715 14.173,14.173 433.6965,0 0,-85.038 -14.173,-14.173 -433.6965,0 0,85.038" /><path
       inkscape:connector-curvature="0"
       id="path20"
       style="fill:none;stroke:#000000;stroke-width:2.83459997;stroke-linecap:butt;stroke-linejoin:miter;stroke-miterlimit:10;stroke-opacity:1;stroke-dasharray:none"
       d="m 35.7875,107.715 14.173,14.173 433.6965,0 0,-85.038 -14.173,-14.173 -433.6965,0 0,85.038 z" /><path
       inkscape:connector-curvature="0"
       id="path22"
       style="fill:none;stroke:#000000;stroke-width:2.83459997;stroke-linecap:butt;stroke-linejoin:miter;stroke-miterlimit:10;stroke-opacity:1;stroke-dasharray:none"
       d="m 35.7875,107.715 433.6965,0" /><path
       inkscape:connector-curvature="0"
       id="path24"
       style="fill:none;stroke:#000000;stroke-width:2.83459997;stroke-linecap:butt;stroke-linejoin:miter;stroke-miterlimit:10;stroke-opacity:1;stroke-dasharray:none"
       d="m 469.484,107.715 14.173,14.173" /><path
       inkscape:connector-curvature="0"
       id="path26"
       style="fill:none;stroke:#000000;stroke-width:2.83459997;stroke-linecap:butt;stroke-linejoin:miter;stroke-miterlimit:10;stroke-opacity:1;stroke-dasharray:none"
       d="m 469.484,107.715 0,-85.038" /><path
       inkscape:connector-curvature="0"
       id="path28"
       style="fill:#000000;fill-opacity:1;fill-rule:nonzero;stroke:none"
       d="m 58.6434,66.8648 0,-11.9675 6.9336,0 c 2.4273,0 4.225,0.4925 5.3933,1.4773 1.1688,0.9852 1.7527,2.491 1.7527,4.5176 0,2.041 -0.5839,3.5469 -1.7527,4.5172 -1.1683,0.9703 -2.966,1.4554 -5.3933,1.4554 l -6.9336,0 m 0,13.3762 0,-9.8558 6.4019,0 c 2.1117,0 3.6848,0.4043 4.7188,1.2132 1.0339,0.8118 1.5511,2.05 1.5511,3.7145 0,1.65 -0.5172,2.8832 -1.5511,3.6996 -1.034,0.8187 -2.6071,1.2285 -4.7188,1.2285 l -6.4019,0 m -4.4586,3.5199 11.1793,0 c 3.332,0 5.8996,-0.6941 7.7035,-2.0828 1.8043,-1.3883 2.7062,-3.3609 2.7062,-5.9179 0,-1.9825 -0.4668,-3.559 -1.4008,-4.7297 -0.9312,-1.1711 -2.3,-1.9008 -4.1066,-2.1891 2.1879,-0.4621 3.8867,-1.4277 5.0965,-2.8969 1.2125,-1.4664 1.8187,-3.3 1.8187,-5.4996 0,-2.8918 -0.9875,-5.1261 -2.9625,-6.7027 -1.9726,-1.5766 -4.7812,-2.3649 -8.4261,-2.3649 l -11.6082,0 0,32.3836" /><path
       inkscape:connector-curvature="0"
       id="path30"
       style="fill:#000000;fill-opacity:1;fill-rule:nonzero;stroke:none"
       d="m 96.1113,63.5797 c -3.2,0 -5.4172,-0.3738 -6.6515,-1.1219 -1.2321,-0.7457 -1.8477,-2.0191 -1.8477,-3.8207 0,-1.4348 0.4617,-2.5738 1.3859,-3.4172 0.9262,-0.841 2.1852,-1.2613 3.7766,-1.2613 2.1949,0 3.9563,0.793 5.2836,2.3797 1.3273,1.5887 1.9908,3.7008 1.9908,6.3359 l 0,0.9055 -3.9377,0 m 7.9267,1.6098 0,-13.8122 -3.989,0 0,3.52 c -0.9045,-1.4422 -2.0326,-2.5071 -3.3842,-3.1938 -1.3519,-0.6871 -3.0043,-1.0305 -4.9574,-1.0305 -2.4738,0 -4.4402,0.6969 -5.8996,2.0903 -1.4566,1.3957 -2.1851,3.2644 -2.1851,5.6062 0,2.7328 0.9093,4.7922 2.7281,6.1782 1.8211,1.3882 4.5367,2.0828 8.1469,2.0828 l 5.5513,0 0,0.4179 c 0,1.8844 -0.5951,3.3414 -1.7853,4.3707 -1.1907,1.0313 -2.8637,1.5473 -5.0199,1.5473 -1.3688,0 -2.7024,-0.1566 -4,-0.4695 C 87.9457,72.184 86.6977,71.7148 85.5,71.0891 l 0,3.7547 c 1.4445,0.4691 2.8465,0.821 4.2055,1.0558 1.3593,0.2348 2.6828,0.352 3.9711,0.352 3.4757,0 6.0718,-0.9153 7.7874,-2.7465 1.716,-1.8281 2.574,-4.6004 2.574,-8.3156" /><path
       inkscape:connector-curvature="0"
       id="path32"
       style="fill:#000000;fill-opacity:1;fill-rule:nonzero;stroke:none"
       d="m 128.271,75.0781 0,-3.7547 c -1.1,0.5477 -2.242,0.9586 -3.428,1.2321 -1.185,0.2738 -2.413,0.4109 -3.681,0.4109 -1.931,0 -3.381,-0.3043 -4.349,-0.9133 -0.965,-0.6062 -1.448,-1.5152 -1.448,-2.7277 0,-0.9242 0.351,-1.65 1.052,-2.1781 0.702,-0.5278 2.111,-1.0301 4.228,-1.5071 l 1.353,-0.3078 c 2.779,-0.6136 4.754,-1.4789 5.925,-2.5961 1.171,-1.1144 1.757,-2.6703 1.757,-4.6675 0,-2.2758 -0.892,-4.0774 -2.677,-5.4047 -1.782,-1.3274 -4.233,-1.9911 -7.352,-1.9911 -1.298,0 -2.651,0.1176 -4.059,0.352 -1.408,0.2348 -2.892,0.5867 -4.451,1.0562 l 0,4.2239 c 1.484,-0.7821 2.946,-1.3688 4.385,-1.7598 1.44,-0.3914 2.865,-0.5867 4.276,-0.5867 1.889,0 3.343,0.3262 4.359,0.9789 1.019,0.6551 1.529,1.5789 1.529,2.7719 0,1.1023 -0.361,1.9468 -1.085,2.5336 -0.721,0.589 -2.305,1.1562 -4.752,1.7015 l -1.375,0.3297 c -2.506,0.5207 -4.316,1.3188 -5.43,2.3946 -1.115,1.0753 -1.672,2.5531 -1.672,4.4328 0,2.2808 0.8,4.0418 2.401,5.2836 1.602,1.2441 3.875,1.8664 6.82,1.8664 1.457,0 2.828,-0.0977 4.114,-0.2934 1.289,-0.1957 2.475,-0.4887 3.56,-0.8801" /><path
       inkscape:connector-curvature="0"
       id="path34"
       style="fill:#000000;fill-opacity:1;fill-rule:nonzero;stroke:none"
       d="m 157.245,64.5477 0,-1.9067 -18.304,0 c 0.173,-2.8281 0.998,-4.9828 2.475,-6.464 1.479,-1.479 3.537,-2.2184 6.175,-2.2184 1.527,0 3.009,0.1953 4.443,0.5867 1.435,0.391 2.859,0.9777 4.272,1.7598 l 0,-3.7547 c -1.433,-0.6109 -2.901,-1.0766 -4.407,-1.3969 -1.504,-0.3203 -3.029,-0.4805 -4.576,-0.4805 -3.877,0 -6.947,1.1305 -9.211,3.3918 -2.263,2.2637 -3.395,5.3239 -3.395,9.1813 0,3.9867 1.074,7.1512 3.223,9.493 2.149,2.3418 5.046,3.5125 8.694,3.5125 3.268,0 5.853,-1.05 7.754,-3.1496 1.905,-2.0973 2.857,-4.9489 2.857,-8.5543 m -3.99,1.1441 c -0.029,2.2121 -0.639,3.977 -1.829,5.2945 -1.188,1.3199 -2.762,1.9801 -4.723,1.9801 -2.219,0 -3.996,-0.6383 -5.331,-1.9141 -1.333,-1.2734 -2.1,-3.0679 -2.303,-5.3828 l 14.186,0.0223" /><path
       inkscape:connector-curvature="0"
       id="path38"
       style="fill:#ffffff;fill-opacity:1;fill-rule:evenodd;stroke:none"
       d="m 36.6379,216.847 14.173,14.173 221.6661,0 0,-85.038 -14.173,-14.173 -221.6661,0 0,85.038" /><path
       inkscape:connector-curvature="0"
       id="path40"
       style="fill:none;stroke:#000000;stroke-width:2.83459997;stroke-linecap:butt;stroke-linejoin:miter;stroke-miterlimit:10;stroke-opacity:1;stroke-dasharray:none"
       d="m 36.6379,216.847 14.173,14.173 221.6661,0 0,-85.038 -14.173,-14.173 -221.6661,0 0,85.038 z" /><path
       inkscape:connector-curvature="0"
       id="path42"
       style="fill:none;stroke:#000000;stroke-width:2.83459997;stroke-linecap:butt;stroke-linejoin:miter;stroke-miterlimit:10;stroke-opacity:1;stroke-dasharray:none"
       d="m 36.6379,216.847 221.6661,0" /><path
       inkscape:connector-curvature="0"
       id="path44"
       style="fill:none;stroke:#000000;stroke-width:2.83459997;stroke-linecap:butt;stroke-linejoin:miter;stroke-miterlimit:10;stroke-opacity:1;stroke-dasharray:none"
       d="m 258.304,216.847 14.173,14.173" /><path
       inkscape:connector-curvature="0"
       id="path46"
       style="fill:none;stroke:#000000;stroke-width:2.83459997;stroke-linecap:butt;stroke-linejoin:miter;stroke-miterlimit:10;stroke-opacity:1;stroke-dasharray:none"
       d="m 258.304,216.847 0,-85.038" /><path
       inkscape:connector-curvature="0"
       id="path48"
       style="fill:#000000;fill-opacity:1;fill-rule:nonzero;stroke:none"
       d="m 74.5121,191.72 0,-4.224 c -1.6621,0.789 -3.2305,1.377 -4.7043,1.763 -1.4715,0.389 -2.8941,0.583 -4.268,0.583 -2.3832,0 -4.2214,-0.462 -5.5144,-1.386 -1.2934,-0.924 -1.9399,-2.238 -1.9399,-3.941 0,-1.43 0.4305,-2.511 1.2907,-3.242 0.8629,-0.728 2.4968,-1.316 4.9023,-1.763 l 2.6547,-0.543 c 3.2316,-0.621 5.6148,-1.717 7.15,-3.289 1.5375,-1.569 2.3063,-3.67 2.3063,-6.303 0,-3.138 -1.0461,-5.518 -3.1387,-7.139 -2.0899,-1.62 -5.1539,-2.431 -9.1922,-2.431 -1.5231,0 -3.1438,0.179 -4.8621,0.536 -1.716,0.354 -3.4942,0.88 -5.3348,1.576 l 0,4.459 c 1.777,-1.01 3.5176,-1.771 5.2211,-2.285 1.7039,-0.511 3.3797,-0.766 5.027,-0.766 2.4984,0 4.4257,0.493 5.7824,1.478 1.359,0.987 2.0387,2.397 2.0387,4.227 0,1.597 -0.4891,2.845 -1.4668,3.744 -0.9778,0.9 -2.5825,1.574 -4.8141,2.024 l -2.673,0.521 c -3.2903,0.65 -5.6711,1.667 -7.1426,3.051 -1.4715,1.383 -2.2074,3.308 -2.2074,5.775 0,2.857 1.0109,5.107 3.0324,6.75 2.0215,1.645 4.807,2.467 8.3562,2.467 1.5203,0 3.0699,-0.137 4.6492,-0.41 1.579,-0.274 3.195,-0.685 4.8473,-1.232" /><path
       inkscape:connector-curvature="0"
       id="path50"
       style="fill:#000000;fill-opacity:1;fill-rule:nonzero;stroke:none"
       d="m 93.9246,158.269 c -1.134,-2.862 -2.2402,-4.73 -3.318,-5.603 -1.0781,-0.872 -2.5191,-1.309 -4.323,-1.309 l -3.2082,0 0,3.286 2.3574,0 c 1.1051,0 1.9629,0.259 2.5742,0.777 0.611,0.518 1.2879,1.741 2.0313,3.667 l 0.7222,1.811 -9.7972,23.782 4.1652,0 7.6375,-18.905 7.641,18.905 4.257,0 -10.7394,-26.411" /><path
       inkscape:connector-curvature="0"
       id="path52"
       style="fill:#000000;fill-opacity:1;fill-rule:nonzero;stroke:none"
       d="m 130.793,175.099 0,-14.59 -3.989,0 0,14.461 c 0,2.305 -0.452,4.03 -1.357,5.174 -0.902,1.147 -2.256,1.72 -4.063,1.72 -2.173,0 -3.886,-0.688 -5.14,-2.065 -1.252,-1.376 -1.878,-3.252 -1.878,-5.628 l 0,-13.662 -3.989,0 0,24.171 3.989,0 0,-3.755 c 0.961,1.494 2.092,2.609 3.392,3.348 1.303,0.74 2.805,1.111 4.506,1.111 2.807,0 4.93,-0.871 6.369,-2.611 1.44,-1.738 2.16,-4.296 2.16,-7.674" /><path
       inkscape:connector-curvature="0"
       id="path54"
       style="fill:#000000;fill-opacity:1;fill-rule:nonzero;stroke:none"
       d="m 143.345,191.485 0,-6.805 8.214,0 0,-3.051 -8.214,0 0,-13.174 c 0,-1.98 0.271,-3.253 0.811,-3.817 0.542,-0.562 1.645,-0.843 3.307,-0.843 l 4.096,0 0,-3.286 -4.096,0 c -3.07,0 -5.19,0.571 -6.358,1.712 -1.166,1.142 -1.749,3.22 -1.749,6.234 l 0,13.174 -2.816,0 0,3.051 2.816,0 0,6.805 3.989,0" /><path
       inkscape:connector-curvature="0"
       id="path56"
       style="fill:#000000;fill-opacity:1;fill-rule:nonzero;stroke:none"
       d="m 177.308,175.099 0,-14.59 -3.99,0 0,14.461 c 0,2.305 -0.452,4.03 -1.356,5.174 -0.902,1.147 -2.257,1.72 -4.063,1.72 -2.173,0 -3.887,-0.688 -5.14,-2.065 -1.252,-1.376 -1.878,-3.252 -1.878,-5.628 l 0,-13.662 -3.989,0 0,33.792 3.989,0 0,-13.376 c 0.961,1.494 2.092,2.609 3.392,3.348 1.303,0.74 2.805,1.111 4.506,1.111 2.807,0 4.929,-0.871 6.369,-2.611 1.44,-1.738 2.16,-4.296 2.16,-7.674" /><path
       inkscape:connector-curvature="0"
       id="path60"
       style="fill:#ffffff;fill-opacity:1;fill-rule:evenodd;stroke:none"
       d="m 38.0555,325.979 14.173,14.173 335.0525,0 0,-85.038 -14.173,-14.173 -335.0525,0 0,85.038" /><path
       inkscape:connector-curvature="0"
       id="path62"
       style="fill:none;stroke:#000000;stroke-width:2.83459997;stroke-linecap:butt;stroke-linejoin:miter;stroke-miterlimit:10;stroke-opacity:1;stroke-dasharray:none"
       d="m 38.0555,325.979 14.173,14.173 335.0525,0 0,-85.038 -14.173,-14.173 -335.0525,0 0,85.038 z" /><path
       inkscape:connector-curvature="0"
       id="path64"
       style="fill:none;stroke:#000000;stroke-width:2.83459997;stroke-linecap:butt;stroke-linejoin:miter;stroke-miterlimit:10;stroke-opacity:1;stroke-dasharray:none"
       d="m 38.0555,325.979 335.0525,0" /><path
       inkscape:connector-curvature="0"
       id="path66"
       style="fill:none;stroke:#000000;stroke-width:2.83459997;stroke-linecap:butt;stroke-linejoin:miter;stroke-miterlimit:10;stroke-opacity:1;stroke-dasharray:none"
       d="m 373.108,325.979 14.173,14.173" /><path
       inkscape:connector-curvature="0"
       id="path68"
       style="fill:none;stroke:#000000;stroke-width:2.83459997;stroke-linecap:butt;stroke-linejoin:miter;stroke-miterlimit:10;stroke-opacity:1;stroke-dasharray:none"
       d="m 373.108,325.979 0,-85.038" /><path
       inkscape:connector-curvature="0"
       id="path70"
       style="fill:#000000;fill-opacity:1;fill-rule:nonzero;stroke:none"
       d="m 78.5105,274.104 0,8.678 -7.0398,0 0,3.521 11.4988,0 0,-13.802 c -1.6843,-1.173 -3.5422,-2.06 -5.5734,-2.662 -2.0289,-0.601 -4.1945,-0.901 -6.4973,-0.901 -5.0402,0 -8.982,1.476 -11.825,4.429 -2.8426,2.955 -4.264,7.068 -4.264,12.338 0,5.285 1.4164,9.404 4.2496,12.356 2.8328,2.956 6.7597,4.434 11.7808,4.434 2.095,0 4.086,-0.259 5.9727,-0.774 1.8871,-0.516 3.6266,-1.275 5.218,-2.277 l 0,-4.694 c -1.6161,1.401 -3.3332,2.455 -5.152,3.161 -1.816,0.709 -3.7262,1.064 -5.7309,1.064 -3.9523,0 -6.921,-1.112 -8.9062,-3.334 -1.9824,-2.221 -2.9734,-5.534 -2.9734,-9.936 0,-4.388 0.9898,-7.693 2.9699,-9.915 1.9801,-2.222 4.9426,-3.333 8.8879,-3.333 1.5398,0 2.9136,0.134 4.1211,0.4 1.2101,0.269 2.298,0.684 3.2632,1.247" /><path
       inkscape:connector-curvature="0"
       id="path72"
       style="fill:#000000;fill-opacity:1;fill-rule:nonzero;stroke:none"
       d="m 105.648,290.292 c -0.452,0.242 -0.946,0.419 -1.481,0.531 -0.533,0.115 -1.121,0.173 -1.764,0.173 -2.28,0 -4.0307,-0.742 -5.2503,-2.226 -1.2199,-1.484 -1.8297,-3.615 -1.8297,-6.395 l 0,-12.734 -3.9894,0 0,24.171 3.9894,0 0,-3.755 c 0.8481,1.508 1.952,2.628 3.311,3.359 1.359,0.733 3.01,1.1 4.954,1.1 0.278,0 0.585,-0.02 0.92,-0.059 0.337,-0.039 0.71,-0.098 1.118,-0.176 l 0.022,-3.989" /><path
       inkscape:connector-curvature="0"
       id="path74"
       style="fill:#000000;fill-opacity:1;fill-rule:nonzero;stroke:none"
       d="m 121.034,281.844 c -3.199,0 -5.416,-0.374 -6.651,-1.122 -1.232,-0.745 -1.848,-2.019 -1.848,-3.821 0,-1.435 0.462,-2.574 1.386,-3.417 0.927,-0.841 2.185,-1.261 3.777,-1.261 2.195,0 3.956,0.793 5.283,2.379 1.328,1.589 1.991,3.701 1.991,6.336 l 0,0.906 -3.938,0 m 7.928,1.61 0,-13.813 -3.99,0 0,3.52 c -0.904,-1.442 -2.032,-2.506 -3.384,-3.193 -1.352,-0.687 -3.004,-1.03 -4.957,-1.03 -2.474,0 -4.44,0.696 -5.9,2.089 -1.457,1.396 -2.185,3.265 -2.185,5.607 0,2.732 0.909,4.792 2.728,6.178 1.821,1.388 4.537,2.083 8.147,2.083 l 5.551,0 0,0.417 c 0,1.885 -0.595,3.342 -1.785,4.371 -1.191,1.032 -2.864,1.547 -5.02,1.547 -1.369,0 -2.702,-0.156 -4,-0.469 -1.298,-0.313 -2.546,-0.782 -3.744,-1.408 l 0,3.755 c 1.445,0.469 2.847,0.821 4.206,1.056 1.359,0.234 2.682,0.352 3.971,0.352 3.476,0 6.071,-0.916 7.788,-2.746 1.716,-1.829 2.574,-4.601 2.574,-8.316" /><path
       inkscape:connector-curvature="0"
       id="path76"
       style="fill:#000000;fill-opacity:1;fill-rule:nonzero;stroke:none"
       d="m 141.696,273.161 0,-12.672 -3.989,0 0,33.323 3.989,0 0,-3.52 c 0.834,1.43 1.886,2.491 3.157,3.183 1.271,0.694 2.789,1.041 4.554,1.041 2.931,0 5.312,-1.175 7.143,-3.524 1.83,-2.349 2.746,-5.437 2.746,-9.265 0,-3.829 -0.916,-6.917 -2.746,-9.266 -1.831,-2.349 -4.212,-3.523 -7.143,-3.523 -1.765,0 -3.283,0.345 -4.554,1.037 -1.271,0.694 -2.323,1.756 -3.157,3.186 m 13.376,8.566 c 0,2.962 -0.595,5.287 -1.786,6.973 -1.188,1.687 -2.822,2.53 -4.902,2.53 -2.08,0 -3.716,-0.843 -4.906,-2.53 -1.188,-1.686 -1.782,-4.011 -1.782,-6.973 0,-2.963 0.594,-5.288 1.782,-6.974 1.19,-1.687 2.826,-2.53 4.906,-2.53 2.08,0 3.714,0.843 4.902,2.53 1.191,1.686 1.786,4.011 1.786,6.974" /><path
       inkscape:connector-curvature="0"
       id="path78"
       style="fill:#000000;fill-opacity:1;fill-rule:nonzero;stroke:none"
       d="m 186.867,284.231 0,-14.59 -3.989,0 0,14.462 c 0,2.305 -0.453,4.029 -1.357,5.173 -0.902,1.147 -2.256,1.72 -4.063,1.72 -2.173,0 -3.886,-0.688 -5.14,-2.064 -1.252,-1.377 -1.878,-3.253 -1.878,-5.629 l 0,-13.662 -3.989,0 0,33.792 3.989,0 0,-13.376 c 0.961,1.494 2.092,2.609 3.392,3.348 1.303,0.74 2.805,1.111 4.506,1.111 2.807,0 4.93,-0.87 6.369,-2.611 1.44,-1.738 2.16,-4.296 2.16,-7.674" /><path
       inkscape:connector-curvature="0"
       id="path82"
       style="fill:#ffffff;fill-opacity:1;fill-rule:evenodd;stroke:none"
       d="m 40.8898,437.946 14.1731,14.173 424.3421,0 0,-85.038 -14.173,-14.173 -424.3422,0 0,85.038" /><path
       inkscape:connector-curvature="0"
       id="path84"
       style="fill:none;stroke:#000000;stroke-width:2.83459997;stroke-linecap:butt;stroke-linejoin:miter;stroke-miterlimit:10;stroke-opacity:1;stroke-dasharray:none"
       d="m 40.8898,437.946 14.1731,14.173 424.3421,0 0,-85.038 -14.173,-14.173 -424.3422,0 0,85.038 z" /><path
       inkscape:connector-curvature="0"
       id="path86"
       style="fill:none;stroke:#000000;stroke-width:2.83459997;stroke-linecap:butt;stroke-linejoin:miter;stroke-miterlimit:10;stroke-opacity:1;stroke-dasharray:none"
       d="m 40.8898,437.946 424.3422,0" /><path
       inkscape:connector-curvature="0"
       id="path88"
       style="fill:none;stroke:#000000;stroke-width:2.83459997;stroke-linecap:butt;stroke-linejoin:miter;stroke-miterlimit:10;stroke-opacity:1;stroke-dasharray:none"
       d="m 465.232,437.946 14.173,14.173" /><path
       inkscape:connector-curvature="0"
       id="path90"
       style="fill:none;stroke:#000000;stroke-width:2.83459997;stroke-linecap:butt;stroke-linejoin:miter;stroke-miterlimit:10;stroke-opacity:1;stroke-dasharray:none"
       d="m 465.232,437.946 0,-85.038" /><path
       inkscape:connector-curvature="0"
       id="path92"
       style="fill:#000000;fill-opacity:1;fill-rule:nonzero;stroke:none"
       d="m 56.4711,413.992 4.407,0 6.7832,-27.372 6.7614,27.372 4.9058,0 6.7836,-27.372 6.7609,27.372 4.4293,0 -8.1031,-32.384 -5.4851,0 -6.8055,28.112 -6.8711,-28.112 -5.4852,0 -8.0812,32.384" /><path
       inkscape:connector-curvature="0"
       id="path94"
       style="fill:#000000;fill-opacity:1;fill-rule:nonzero;stroke:none"
       d="m 110.763,403.197 c -2.139,0 -3.829,-0.847 -5.071,-2.541 -1.242,-1.694 -1.862,-4.015 -1.862,-6.963 0,-2.948 0.617,-5.269 1.851,-6.963 1.235,-1.694 2.928,-2.541 5.082,-2.541 2.124,0 3.807,0.851 5.049,2.552 1.242,1.702 1.863,4.019 1.863,6.952 0,2.919 -0.621,5.232 -1.863,6.941 -1.242,1.709 -2.925,2.563 -5.049,2.563 m -0.011,3.285 c 3.469,0 6.193,-1.131 8.173,-3.395 1.982,-2.261 2.974,-5.392 2.974,-9.394 0,-3.987 -0.992,-7.115 -2.974,-9.386 -1.98,-2.269 -4.704,-3.403 -8.173,-3.403 -3.483,0 -6.213,1.134 -8.188,3.403 -1.972,2.271 -2.9585,5.399 -2.9585,9.386 0,4.002 0.9865,7.133 2.9585,9.394 1.975,2.264 4.705,3.395 8.188,3.395" /><path
       inkscape:connector-curvature="0"
       id="path96"
       style="fill:#000000;fill-opacity:1;fill-rule:nonzero;stroke:none"
       d="m 143.316,402.259 c -0.452,0.241 -0.946,0.419 -1.482,0.531 -0.532,0.115 -1.12,0.172 -1.763,0.172 -2.281,0 -4.031,-0.741 -5.251,-2.225 -1.22,-1.484 -1.829,-3.616 -1.829,-6.395 l 0,-12.734 -3.99,0 0,24.171 3.99,0 0,-3.755 c 0.848,1.508 1.952,2.628 3.311,3.358 1.359,0.734 3.01,1.1 4.953,1.1 0.279,0 0.586,-0.019 0.92,-0.058 0.338,-0.039 0.711,-0.098 1.119,-0.176 l 0.022,-3.989" /><path
       inkscape:connector-curvature="0"
       id="path98"
       style="fill:#000000;fill-opacity:1;fill-rule:nonzero;stroke:none"
       d="m 147.856,381.608 3.98945,0 0,33.7914 -3.98945,0 0,-33.7914 z" /><path
       inkscape:connector-curvature="0"
       id="path100"
       style="fill:#000000;fill-opacity:1;fill-rule:nonzero;stroke:none"
       d="m 176.181,402.259 0,13.141 3.989,0 0,-33.792 -3.989,0 0,3.52 c -0.834,-1.43 -1.886,-2.492 -3.157,-3.186 -1.271,-0.692 -2.797,-1.038 -4.576,-1.038 -2.916,0 -5.29,1.175 -7.121,3.524 -1.831,2.349 -2.746,5.437 -2.746,9.265 0,3.828 0.915,6.917 2.746,9.266 1.831,2.349 4.205,3.523 7.121,3.523 1.779,0 3.305,-0.346 4.576,-1.041 1.271,-0.692 2.323,-1.752 3.157,-3.182 m -13.376,-8.566 c 0,-2.963 0.594,-5.287 1.782,-6.973 1.188,-1.687 2.819,-2.531 4.895,-2.531 2.077,0 3.713,0.844 4.906,2.531 1.195,1.686 1.793,4.01 1.793,6.973 0,2.963 -0.598,5.287 -1.793,6.974 -1.193,1.687 -2.829,2.53 -4.906,2.53 -2.076,0 -3.707,-0.843 -4.895,-2.53 -1.188,-1.687 -1.782,-4.011 -1.782,-6.974" /><path
       inkscape:connector-curvature="0"
       id="path104"
       style="fill:#ffffff;fill-opacity:1;fill-rule:evenodd;stroke:none"
       d="m 39.4727,549.912 14.173,14.174 217.7683,0 0,-85.038 -14.173,-14.173 -217.7683,0 0,85.037" /><path
       inkscape:connector-curvature="0"
       id="path106"
       style="fill:none;stroke:#000000;stroke-width:2.83459997;stroke-linecap:butt;stroke-linejoin:miter;stroke-miterlimit:10;stroke-opacity:1;stroke-dasharray:none"
       d="m 39.4727,549.912 14.173,14.174 217.7683,0 0,-85.038 -14.173,-14.173 -217.7683,0 0,85.037 z" /><path
       inkscape:connector-curvature="0"
       id="path108"
       style="fill:none;stroke:#000000;stroke-width:2.83459997;stroke-linecap:butt;stroke-linejoin:miter;stroke-miterlimit:10;stroke-opacity:1;stroke-dasharray:none"
       d="m 39.4727,549.912 217.7683,0" /><path
       inkscape:connector-curvature="0"
       id="path110"
       style="fill:none;stroke:#000000;stroke-width:2.83459997;stroke-linecap:butt;stroke-linejoin:miter;stroke-miterlimit:10;stroke-opacity:1;stroke-dasharray:none"
       d="m 257.241,549.912 14.173,14.174" /><path
       inkscape:connector-curvature="0"
       id="path112"
       style="fill:none;stroke:#000000;stroke-width:2.83459997;stroke-linecap:butt;stroke-linejoin:miter;stroke-miterlimit:10;stroke-opacity:1;stroke-dasharray:none"
       d="m 257.241,549.912 0,-85.037" /><path
       inkscape:connector-curvature="0"
       id="path114"
       style="fill:#000000;fill-opacity:1;fill-rule:nonzero;stroke:none"
       d="m 57.8695,525.959 6.0535,0 13.893,-27.093 0,27.093 4.4586,0 0,-32.384 -6.0535,0 -13.893,27.093 0,-27.093 -4.4586,0 0,32.384" /><path
       inkscape:connector-curvature="0"
       id="path116"
       style="fill:#000000;fill-opacity:1;fill-rule:nonzero;stroke:none"
       d="m 112.433,506.745 0,-1.906 -18.3041,0 c 0.1734,-2.828 0.9984,-4.983 2.475,-6.465 1.4789,-1.478 3.5371,-2.218 6.1751,-2.218 1.527,0 3.009,0.196 4.443,0.587 1.435,0.391 2.859,0.978 4.272,1.76 l 0,-3.755 c -1.432,-0.611 -2.901,-1.077 -4.407,-1.397 -1.504,-0.32 -3.029,-0.48 -4.576,-0.48 -3.877,0 -6.9473,1.13 -9.211,3.391 -2.2633,2.264 -3.3953,5.324 -3.3953,9.182 0,3.986 1.0746,7.151 3.223,9.493 2.1489,2.342 5.0465,3.512 8.6933,3.512 3.268,0 5.854,-1.05 7.755,-3.149 1.904,-2.098 2.857,-4.949 2.857,-8.555 m -3.99,1.144 c -0.029,2.213 -0.639,3.977 -1.829,5.295 -1.188,1.32 -2.762,1.98 -4.723,1.98 -2.2195,0 -3.9965,-0.638 -5.3312,-1.914 -1.3321,-1.273 -2.0996,-3.068 -2.3028,-5.383 l 14.186,0.022" /><path
       inkscape:connector-curvature="0"
       id="path118"
       style="fill:#000000;fill-opacity:1;fill-rule:nonzero;stroke:none"
       d="m 123.666,524.55 0,-6.805 8.213,0 0,-3.05 -8.213,0 0,-13.175 c 0,-1.98 0.27,-3.252 0.811,-3.816 0.542,-0.563 1.644,-0.844 3.307,-0.844 l 4.095,0 0,-3.285 -4.095,0 c -3.07,0 -5.19,0.571 -6.358,1.712 -1.166,1.142 -1.749,3.219 -1.749,6.233 l 0,13.175 -2.816,0 0,3.05 2.816,0 0,6.805 3.989,0" /><path
       inkscape:connector-curvature="0"
       id="path120"
       style="fill:#000000;fill-opacity:1;fill-rule:nonzero;stroke:none"
       d="m 135.101,517.745 3.993,0 4.99,-18.861 4.972,18.861 4.708,0 4.994,-18.861 4.968,18.861 3.993,0 -6.358,-24.17 -4.711,0 -5.229,19.811 -5.251,-19.811 -4.711,0 -6.358,24.17" /><path
       inkscape:connector-curvature="0"
       id="path122"
       style="fill:#000000;fill-opacity:1;fill-rule:nonzero;stroke:none"
       d="m 183.755,515.164 c -2.139,0 -3.829,-0.847 -5.071,-2.541 -1.241,-1.694 -1.863,-4.015 -1.863,-6.963 0,-2.948 0.618,-5.269 1.852,-6.963 1.235,-1.694 2.929,-2.541 5.082,-2.541 2.124,0 3.807,0.851 5.049,2.552 1.242,1.701 1.863,4.019 1.863,6.952 0,2.919 -0.621,5.232 -1.863,6.941 -1.242,1.709 -2.925,2.563 -5.049,2.563 m -0.011,3.285 c 3.469,0 6.193,-1.131 8.173,-3.395 1.983,-2.261 2.974,-5.393 2.974,-9.394 0,-3.987 -0.991,-7.116 -2.974,-9.387 -1.98,-2.268 -4.704,-3.402 -8.173,-3.402 -3.483,0 -6.212,1.134 -8.187,3.402 -1.973,2.271 -2.959,5.4 -2.959,9.387 0,4.001 0.986,7.133 2.959,9.394 1.975,2.264 4.704,3.395 8.187,3.395" /><path
       inkscape:connector-curvature="0"
       id="path124"
       style="fill:#000000;fill-opacity:1;fill-rule:nonzero;stroke:none"
       d="m 216.308,514.225 c -0.453,0.242 -0.946,0.42 -1.481,0.532 -0.533,0.115 -1.121,0.172 -1.764,0.172 -2.281,0 -4.031,-0.741 -5.251,-2.225 -1.219,-1.484 -1.829,-3.616 -1.829,-6.395 l 0,-12.734 -3.99,0 0,24.17 3.99,0 0,-3.754 c 0.848,1.508 1.951,2.627 3.311,3.358 1.359,0.733 3.01,1.1 4.953,1.1 0.279,0 0.586,-0.019 0.921,-0.058 0.337,-0.039 0.71,-0.098 1.118,-0.177 l 0.022,-3.989" /><path
       inkscape:connector-curvature="0"
       id="path126"
       style="fill:#000000;fill-opacity:1;fill-rule:nonzero;stroke:none"
       d="m 220.613,527.366 3.99,0 0,-20.045 11.997,10.424 5.133,0 -12.979,-11.307 13.448,-12.863 -5.221,0 -12.378,11.803 0,-11.803 -3.99,0 0,33.791" /><path
       inkscape:connector-curvature="0"
       id="path130"
       style="fill:#ffffff;fill-opacity:1;fill-rule:evenodd;stroke:none"
       d="m 316.699,582.085 14.173,14.173 200.974,0 0,-85.038 -14.173,-14.173 -200.974,0 0,85.038" /><path
       inkscape:connector-curvature="0"
       id="path132"
       style="fill:none;stroke:#000000;stroke-width:2.83459997;stroke-linecap:butt;stroke-linejoin:miter;stroke-miterlimit:10;stroke-opacity:1;stroke-dasharray:none"
       d="m 316.699,582.085 14.173,14.173 200.974,0 0,-85.038 -14.173,-14.173 -200.974,0 0,85.038 z" /><path
       inkscape:connector-curvature="0"
       id="path134"
       style="fill:none;stroke:#000000;stroke-width:2.83459997;stroke-linecap:butt;stroke-linejoin:miter;stroke-miterlimit:10;stroke-opacity:1;stroke-dasharray:none"
       d="m 316.699,582.085 200.974,0" /><path
       inkscape:connector-curvature="0"
       id="path136"
       style="fill:none;stroke:#000000;stroke-width:2.83459997;stroke-linecap:butt;stroke-linejoin:miter;stroke-miterlimit:10;stroke-opacity:1;stroke-dasharray:none"
       d="m 517.673,582.085 14.173,14.173" /><path
       inkscape:connector-curvature="0"
       id="path138"
       style="fill:none;stroke:#000000;stroke-width:2.83459997;stroke-linecap:butt;stroke-linejoin:miter;stroke-miterlimit:10;stroke-opacity:1;stroke-dasharray:none"
       d="m 517.673,582.085 0,-85.038" /><path
       inkscape:connector-curvature="0"
       id="path140"
       style="fill:#000000;fill-opacity:1;fill-rule:nonzero;stroke:none"
       d="m 357.155,530.21 0,8.679 -7.04,0 0,3.52 11.498,0 0,-13.802 c -1.684,-1.173 -3.542,-2.06 -5.573,-2.662 -2.029,-0.601 -4.195,-0.902 -6.497,-0.902 -5.041,0 -8.982,1.477 -11.825,4.43 -2.843,2.955 -4.264,7.068 -4.264,12.338 0,5.285 1.416,9.404 4.249,12.357 2.833,2.955 6.76,4.432 11.781,4.432 2.095,0 4.086,-0.257 5.973,-0.773 1.887,-0.516 3.627,-1.275 5.218,-2.277 l 0,-4.693 c -1.616,1.4 -3.333,2.454 -5.152,3.16 -1.816,0.709 -3.727,1.063 -5.731,1.063 -3.953,0 -6.921,-1.11 -8.906,-3.332 -1.982,-2.222 -2.974,-5.535 -2.974,-9.937 0,-4.388 0.99,-7.693 2.97,-9.915 1.98,-2.221 4.943,-3.333 8.888,-3.333 1.54,0 2.914,0.133 4.121,0.4 1.211,0.269 2.298,0.685 3.264,1.247" /><path
       inkscape:connector-curvature="0"
       id="path142"
       style="fill:#000000;fill-opacity:1;fill-rule:nonzero;stroke:none"
       d="m 369.743,558.131 4.459,0 0,-19.748 c 0,-3.484 0.618,-5.992 1.855,-7.524 1.237,-1.53 3.243,-2.296 6.017,-2.296 2.76,0 4.758,0.766 5.995,2.296 1.237,1.532 1.855,4.04 1.855,7.524 l 0,19.748 4.459,0 0,-20.291 c 0,-4.222 -1.039,-7.41 -3.117,-9.566 -2.075,-2.154 -5.139,-3.231 -9.192,-3.231 -4.068,0 -7.14,1.077 -9.218,3.231 -2.075,2.156 -3.113,5.344 -3.113,9.566 l 0,20.291" /><path
       inkscape:connector-curvature="0"
       id="path144"
       style="fill:#000000;fill-opacity:1;fill-rule:nonzero;stroke:none"
       d="m 403.346,525.748 4.45859,0 0,32.3836 -4.45859,0 0,-32.3836 z" /><path
       inkscape:connector-curvature="0"
       id="path148"
       style="fill:#ffffff;fill-opacity:1;fill-rule:evenodd;stroke:none"
       d="m 209.41,144.919 0,-25.512 -12.756,0 25.512,-25.5109 25.511,25.5109 -12.756,0 0,25.512" /><path
       inkscape:connector-curvature="0"
       id="path150"
       style="fill:none;stroke:#000000;stroke-width:2.83459997;stroke-linecap:butt;stroke-linejoin:miter;stroke-miterlimit:10;stroke-opacity:1;stroke-dasharray:none"
       d="m 209.41,144.919 0,-25.512 -12.756,0 25.512,-25.5109 25.511,25.5109 -12.756,0 0,25.512 -25.511,0 z" /><path
       inkscape:connector-curvature="0"
       id="path152"
       style="fill:none;stroke:#000000;stroke-width:2.83459997;stroke-linecap:butt;stroke-linejoin:miter;stroke-miterlimit:10;stroke-opacity:1;stroke-dasharray:none"
       d="m 209.41,144.919 0,-25.512 -12.756,0 25.512,-25.5109 25.511,25.5109 -12.756,0 0,25.512 -25.511,0 z" /><path
       inkscape:connector-curvature="0"
       id="path154"
       style="fill:#ffffff;fill-opacity:1;fill-rule:evenodd;stroke:none"
       d="m 209.232,254.051 0,-26.574 -13.287,0 26.575,-26.575 26.574,26.575 -13.287,0 0,26.574" /><path
       inkscape:connector-curvature="0"
       id="path156"
       style="fill:none;stroke:#000000;stroke-width:2.83459997;stroke-linecap:butt;stroke-linejoin:miter;stroke-miterlimit:10;stroke-opacity:1;stroke-dasharray:none"
       d="m 209.232,254.051 0,-26.574 -13.287,0 26.575,-26.575 26.574,26.575 -13.287,0 0,26.574 -26.575,0 z" /><path
       inkscape:connector-curvature="0"
       id="path158"
       style="fill:none;stroke:#000000;stroke-width:2.83459997;stroke-linecap:butt;stroke-linejoin:miter;stroke-miterlimit:10;stroke-opacity:1;stroke-dasharray:none"
       d="m 209.232,254.051 0,-26.574 -13.287,0 26.575,-26.575 26.574,26.575 -13.287,0 0,26.574 -26.575,0 z" /><path
       inkscape:connector-curvature="0"
       id="path160"
       style="fill:#ffffff;fill-opacity:1;fill-rule:evenodd;stroke:none"
       d="m 344.762,310.743 0,-80.786 -40.393,0 80.786,-80.786 80.786,80.786 -40.393,0 0,80.786" /><path
       inkscape:connector-curvature="0"
       id="path162"
       style="fill:none;stroke:#000000;stroke-width:2.83459997;stroke-linecap:butt;stroke-linejoin:miter;stroke-miterlimit:10;stroke-opacity:1;stroke-dasharray:none"
       d="m 344.762,310.743 0,-80.786 -40.393,0 80.786,-80.786 80.786,80.786 -40.393,0 0,80.786 -80.786,0 z" /><path
       inkscape:connector-curvature="0"
       id="path164"
       style="fill:none;stroke:#000000;stroke-width:2.83459997;stroke-linecap:butt;stroke-linejoin:miter;stroke-miterlimit:10;stroke-opacity:1;stroke-dasharray:none"
       d="m 344.762,310.743 0,-80.786 -40.393,0 80.786,-80.786 80.786,80.786 -40.393,0 0,80.786 -80.786,0 z" /><path
       inkscape:connector-curvature="0"
       id="path166"
       style="fill:#ffffff;fill-opacity:1;fill-rule:evenodd;stroke:none"
       d="m 108.959,473.732 0,-27.282 -13.6418,0 27.2828,-27.284 27.283,27.284 -13.641,0 0,27.282" /><path
       inkscape:connector-curvature="0"
       id="path168"
       style="fill:none;stroke:#000000;stroke-width:2.83459997;stroke-linecap:butt;stroke-linejoin:miter;stroke-miterlimit:10;stroke-opacity:1;stroke-dasharray:none"
       d="m 108.959,473.732 0,-27.282 -13.6418,0 27.2828,-27.284 27.283,27.284 -13.641,0 0,27.282 -27.283,0 z" /><path
       inkscape:connector-curvature="0"
       id="path170"
       style="fill:none;stroke:#000000;stroke-width:2.83459997;stroke-linecap:butt;stroke-linejoin:miter;stroke-miterlimit:10;stroke-opacity:1;stroke-dasharray:none"
       d="m 108.959,473.732 0,-27.282 -13.6418,0 27.2828,-27.284 27.283,27.284 -13.641,0 0,27.282 -27.283,0 z" /><path
       inkscape:connector-curvature="0"
       id="path172"
       style="fill:#000000;fill-opacity:1;fill-rule:nonzero;stroke:none"
       d="m 21.6008,594.557 4.69336,0 0,20.1812 -4.69336,0 0,-20.1812 z" /><path
       inkscape:connector-curvature="0"
       id="path174"
       style="fill:#000000;fill-opacity:1;fill-rule:nonzero;stroke:none"
       d="m 30.9461,609.107 4.693,0 0,-14.55 -4.693,0 0,14.55 m 0,5.632 4.693,0 0,-3.755 -4.693,0 0,3.755" /><path
       inkscape:connector-curvature="0"
       id="path176"
       style="fill:#000000;fill-opacity:1;fill-rule:nonzero;stroke:none"
       d="m 47.9289,597.373 c 0.9508,0 1.6758,0.381 2.1742,1.141 0.4989,0.763 0.7481,1.868 0.7481,3.318 0,1.45 -0.2492,2.554 -0.7481,3.314 -0.4984,0.763 -1.2234,1.145 -2.1742,1.145 -0.9484,0 -1.6769,-0.384 -2.1851,-1.152 -0.5063,-0.765 -0.759,-1.867 -0.759,-3.307 0,-1.44 0.2527,-2.543 0.759,-3.311 0.5082,-0.765 1.2367,-1.148 2.1851,-1.148 m -2.9441,9.622 c 0.6304,0.882 1.3297,1.532 2.0972,1.95 0.7676,0.421 1.65,0.631 2.6473,0.631 1.7648,0 3.2145,-0.722 4.3484,-2.167 1.1344,-1.445 1.7016,-3.304 1.7016,-5.577 0,-2.273 -0.5672,-4.132 -1.7016,-5.577 -1.1339,-1.444 -2.5836,-2.167 -4.3484,-2.167 -0.9973,0 -1.8797,0.209 -2.6473,0.627 -0.7675,0.421 -1.4668,1.072 -2.0972,1.955 l 0,-2.113 -4.6934,0 0,20.182 4.6934,0 0,-7.744" /><path
       inkscape:connector-curvature="0"
       id="path178"
       style="fill:#000000;fill-opacity:1;fill-rule:nonzero;stroke:none"
       d="m 64.4543,596.67 0,-7.745 -4.6934,0 0,20.182 4.6934,0 0,-2.112 c 0.6305,0.882 1.3297,1.532 2.0973,1.95 0.7675,0.421 1.65,0.631 2.6472,0.631 1.7649,0 3.2145,-0.722 4.3489,-2.167 1.1339,-1.445 1.7011,-3.304 1.7011,-5.577 0,-2.273 -0.5672,-4.132 -1.7011,-5.577 -1.1344,-1.444 -2.584,-2.167 -4.3489,-2.167 -0.9972,0 -1.8797,0.209 -2.6472,0.627 -0.7676,0.421 -1.4668,1.072 -2.0973,1.955 m 2.9441,9.621 c -0.9484,0 -1.6765,-0.384 -2.1851,-1.152 -0.5059,-0.765 -0.759,-1.867 -0.759,-3.307 0,-1.44 0.2531,-2.543 0.759,-3.311 0.5086,-0.765 1.2367,-1.148 2.1851,-1.148 0.9512,0 1.6758,0.381 2.1746,1.141 0.4985,0.763 0.7477,1.868 0.7477,3.318 0,1.45 -0.2492,2.554 -0.7477,3.314 -0.4988,0.763 -1.2234,1.145 -2.1746,1.145" /><path
       inkscape:connector-curvature="0"
       id="path180"
       style="fill:#000000;fill-opacity:1;fill-rule:nonzero;stroke:none"
       d="m 90.7293,608.872 0,-3.52 c -0.9777,0.391 -1.9227,0.684 -2.8344,0.88 -0.9094,0.196 -1.7683,0.293 -2.5777,0.293 -0.8676,0 -1.5129,-0.11 -1.936,-0.33 -0.4203,-0.22 -0.6304,-0.559 -0.6304,-1.019 0,-0.372 0.1625,-0.656 0.4875,-0.854 0.3277,-0.198 0.9129,-0.345 1.7562,-0.44 l 0.8215,-0.121 c 2.3074,-0.311 3.8598,-0.823 4.6567,-1.537 0.7968,-0.711 1.1953,-1.827 1.1953,-3.347 0,-1.591 -0.5684,-2.788 -1.7051,-3.59 -1.1367,-0.799 -2.8332,-1.199 -5.0895,-1.199 -0.9554,0 -1.9445,0.078 -2.966,0.235 -1.0219,0.156 -2.0707,0.391 -3.1461,0.704 l 0,3.52 c 0.9387,-0.47 1.902,-0.822 2.8895,-1.056 0.9898,-0.235 1.9945,-0.352 3.0137,-0.352 0.9218,0 1.6148,0.131 2.0793,0.392 0.4667,0.264 0.7,0.654 0.7,1.17 0,0.435 -0.1586,0.759 -0.4766,0.971 -0.3176,0.213 -0.9496,0.378 -1.8957,0.496 l -0.8211,0.106 c -2.1168,0.264 -3.6008,0.75 -4.4516,1.459 -0.848,0.712 -1.2722,1.79 -1.2722,3.238 0,1.562 0.5269,2.719 1.5804,3.472 1.0559,0.755 2.6731,1.133 4.8508,1.133 0.8559,0 1.7539,-0.058 2.6953,-0.172 0.9434,-0.113 1.9688,-0.29 3.0762,-0.532" /><path
       inkscape:connector-curvature="0"
       id="path182"
       style="fill:#000000;fill-opacity:1;fill-rule:nonzero;stroke:none"
       d="m 93.5664,609.107 4.6199,0 3.8827,-9.875 3.304,9.875 4.62,0 -6.08,-15.825 c -0.611,-1.616 -1.323,-2.746 -2.137,-3.389 -0.812,-0.645 -1.8834,-0.968 -3.2158,-0.968 l -2.6731,0 0,3.051 1.4484,0 c 0.7821,0 1.3516,0.121 1.7086,0.363 0.3571,0.24 0.6344,0.671 0.8325,1.295 l 0.1284,0.403 -6.4386,15.07" /><path
       inkscape:connector-curvature="0"
       id="path184"
       style="fill:#000000;fill-opacity:1;fill-rule:nonzero;stroke:none"
       d="m 127.693,603.5 0,-8.943 -4.694,0 0,6.846 c 0,1.266 -0.028,2.14 -0.084,2.622 -0.054,0.481 -0.148,0.834 -0.283,1.059 -0.178,0.308 -0.419,0.547 -0.722,0.715 -0.303,0.171 -0.649,0.257 -1.037,0.257 -0.944,0 -1.686,-0.379 -2.226,-1.136 -0.54,-0.756 -0.81,-1.802 -0.81,-3.139 l 0,-7.224 -4.694,0 0,14.55 4.694,0 0,-2.112 c 0.694,0.882 1.429,1.532 2.207,1.95 0.779,0.421 1.64,0.631 2.581,0.631 1.66,0 2.919,-0.518 3.777,-1.555 0.86,-1.036 1.291,-2.543 1.291,-4.521" /><path
       inkscape:connector-curvature="0"
       id="path186"
       style="fill:#000000;fill-opacity:1;fill-rule:nonzero;stroke:none"
       d="m 137.634,613.096 0,-3.989 4.693,0 0,-3.286 -4.693,0 0,-6.233 c 0,-0.682 0.136,-1.144 0.407,-1.386 0.273,-0.24 0.815,-0.359 1.624,-0.359 l 2.427,0 0,-3.286 -4.047,0 c -1.856,0 -3.171,0.382 -3.946,1.145 -0.772,0.762 -1.158,2.058 -1.158,3.886 l 0,6.233 -2.347,0 0,3.286 2.347,0 0,3.989 4.693,0" /><path
       inkscape:connector-curvature="0"
       id="path188"
       style="fill:#000000;fill-opacity:1;fill-rule:nonzero;stroke:none"
       d="m 160.047,603.5 0,-8.943 -4.693,0 0,6.817 c 0,1.285 -0.028,2.168 -0.084,2.647 -0.054,0.482 -0.148,0.836 -0.283,1.063 -0.178,0.306 -0.419,0.544 -0.722,0.715 -0.303,0.171 -0.649,0.257 -1.038,0.257 -0.943,0 -1.685,-0.379 -2.225,-1.136 -0.541,-0.756 -0.811,-1.802 -0.811,-3.139 l 0,-7.224 -4.693,0 0,20.182 4.693,0 0,-7.744 c 0.695,0.882 1.43,1.532 2.207,1.95 0.781,0.421 1.641,0.631 2.582,0.631 1.66,0 2.918,-0.518 3.777,-1.555 0.86,-1.036 1.29,-2.543 1.29,-4.521" /><path
       inkscape:connector-curvature="0"
       id="path190"
       style="fill:#ffffff;fill-opacity:1;fill-rule:evenodd;stroke:none"
       d="m 208.825,362.262 0,-26.574 -13.287,0 26.574,-26.575 26.574,26.575 -13.287,0 0,26.574" /><path
       inkscape:connector-curvature="0"
       id="path192"
       style="fill:none;stroke:#000000;stroke-width:2.83459997;stroke-linecap:butt;stroke-linejoin:miter;stroke-miterlimit:10;stroke-opacity:1;stroke-dasharray:none"
       d="m 208.825,362.262 0,-26.574 -13.287,0 26.574,-26.575 26.574,26.575 -13.287,0 0,26.574 -26.574,0 z" /><path
       inkscape:connector-curvature="0"
       id="path194"
       style="fill:none;stroke:#000000;stroke-width:2.83459997;stroke-linecap:butt;stroke-linejoin:miter;stroke-miterlimit:10;stroke-opacity:1;stroke-dasharray:none"
       d="m 208.825,362.262 0,-26.574 -13.287,0 26.574,-26.575 26.574,26.575 -13.287,0 0,26.574 -26.574,0 z" /><path
       inkscape:connector-curvature="0"
       id="path196"
       style="fill:#ffffff;fill-opacity:1;fill-rule:evenodd;stroke:none"
       d="m 369.334,481.315 0,-27.283 -13.641,0 27.282,-27.283 27.284,27.283 -13.642,0 0,27.283" /><path
       inkscape:connector-curvature="0"
       id="path198"
       style="fill:none;stroke:#000000;stroke-width:2.83459997;stroke-linecap:butt;stroke-linejoin:miter;stroke-miterlimit:10;stroke-opacity:1;stroke-dasharray:none"
       d="m 369.334,481.315 0,-27.283 -13.641,0 27.282,-27.283 27.284,27.283 -13.642,0 0,27.283 -27.283,0 z" /><path
       inkscape:connector-curvature="0"
       id="path200"
       style="fill:none;stroke:#000000;stroke-width:2.83459997;stroke-linecap:butt;stroke-linejoin:miter;stroke-miterlimit:10;stroke-opacity:1;stroke-dasharray:none"
       d="m 369.334,481.315 0,-27.283 -13.641,0 27.282,-27.283 27.284,27.283 -13.642,0 0,27.283 -27.283,0 z" /></g></svg>