<?xml version="1.0" encoding="UTF-8" standalone="no"?>
<!-- Created with Inkscape (http://www.inkscape.org/) -->
<svg
   xmlns:dc="http://purl.org/dc/elements/1.1/"
   xmlns:cc="http://creativecommons.org/ns#"
   xmlns:rdf="http://www.w3.org/1999/02/22-rdf-syntax-ns#"
   xmlns:svg="http://www.w3.org/2000/svg"
   xmlns="http://www.w3.org/2000/svg"
   xmlns:sodipodi="http://sodipodi.sourceforge.net/DTD/sodipodi-0.dtd"
   xmlns:inkscape="http://www.inkscape.org/namespaces/inkscape"
   width="585"
   height="330"
   id="svg3852"
   sodipodi:version="0.32"
   inkscape:version="0.46"
   sodipodi:docname="Sampled.signal.svg"
   inkscape:output_extension="org.inkscape.output.svg.inkscape"
   version="1.0">
  <defs
     id="defs3854" />
  <sodipodi:namedview
     id="base"
     pagecolor="#ffffff"
     bordercolor="#666666"
     borderopacity="1.0"
     inkscape:pageopacity="0.0"
     inkscape:pageshadow="2"
     inkscape:zoom="2.3060606"
     inkscape:cx="292.5"
     inkscape:cy="165"
     inkscape:document-units="px"
     inkscape:current-layer="layer1"
     showgrid="false"
     inkscape:window-width="1680"
     inkscape:window-height="977"
     inkscape:window-x="0"
     inkscape:window-y="26">
    <inkscape:grid
       type="xygrid"
       id="grid4120"
       visible="true"
       enabled="true" />
  </sodipodi:namedview>
  <metadata
     id="metadata3857">
    <rdf:RDF>
      <cc:Work
         rdf:about="">
        <dc:format>image/svg+xml</dc:format>
        <dc:type
           rdf:resource="http://purl.org/dc/dcmitype/StillImage" />
      </cc:Work>
    </rdf:RDF>
  </metadata>
  <g
     inkscape:label="Ebene 1"
     inkscape:groupmode="layer"
     id="layer1"
     transform="translate(-63.604898,-184.55099)">
    <g
       id="g4122"
       transform="translate(6.0609153,7.0710678)">
      <line
         id="line3755"
         y2="465.82581"
         x2="625.52014"
         y1="465.82581"
         x1="101.94696"
         style="fill:none;fill-opacity:0;stroke:#000000;stroke-width:3.54330707" />
      <polyline
         id="polyline3757"
         points="14.3882,-5.75 14.8882,-6 14.3882,-6.25 "
         style="fill:none;fill-opacity:0;stroke:#000000;stroke-width:0.1"
         transform="matrix(35.433071,0,0,35.433071,101.94696,678.42422)" />
      <line
         id="line3759"
         y2="190.28407"
         x2="137.38004"
         y1="501.25888"
         x1="137.38004"
         style="fill:none;fill-opacity:0;stroke:#000000;stroke-width:3.54330707" />
      <polyline
         id="polyline3761"
         points="1.25,-13.3882 1,-13.8882 0.75,-13.3882 "
         style="fill:none;fill-opacity:0;stroke:#000000;stroke-width:0.1"
         transform="matrix(35.433071,0,0,35.433071,101.94696,678.42422)" />
      <line
         id="line3763"
         y2="217.7943"
         x2="172.81311"
         y1="465.82581"
         x1="172.81311"
         style="fill:none;fill-opacity:0;stroke:#000000;stroke-width:3.54330707;stroke-dasharray:7.0866142" />
      <line
         id="line3765"
         y2="217.7943"
         x2="208.24617"
         y1="465.82581"
         x1="208.24617"
         style="fill:none;fill-opacity:0;stroke:#000000;stroke-width:3.54330707;stroke-dasharray:7.0866142" />
      <line
         id="line3767"
         y2="217.7943"
         x2="243.67924"
         y1="465.82581"
         x1="243.67924"
         style="fill:none;fill-opacity:0;stroke:#000000;stroke-width:3.54330707;stroke-dasharray:7.0866142" />
      <line
         id="line3769"
         y2="217.7943"
         x2="279.1123"
         y1="465.82581"
         x1="279.1123"
         style="fill:none;fill-opacity:0;stroke:#000000;stroke-width:3.54330707;stroke-dasharray:7.0866142" />
      <line
         id="line3771"
         y2="217.7943"
         x2="314.54538"
         y1="465.82581"
         x1="314.54538"
         style="fill:none;fill-opacity:0;stroke:#000000;stroke-width:3.54330707;stroke-dasharray:7.0866142" />
      <line
         id="line3773"
         y2="217.7943"
         x2="349.97845"
         y1="465.82581"
         x1="349.97845"
         style="fill:none;fill-opacity:0;stroke:#000000;stroke-width:3.54330707;stroke-dasharray:7.0866142" />
      <line
         id="line3775"
         y2="217.7943"
         x2="385.41153"
         y1="465.82581"
         x1="385.41153"
         style="fill:none;fill-opacity:0;stroke:#000000;stroke-width:3.54330707;stroke-dasharray:7.0866142" />
      <line
         id="line3777"
         y2="217.7943"
         x2="420.8446"
         y1="465.82581"
         x1="420.8446"
         style="fill:none;fill-opacity:0;stroke:#000000;stroke-width:3.54330707;stroke-dasharray:7.0866142" />
      <line
         id="line3779"
         y2="217.7943"
         x2="456.27768"
         y1="465.82581"
         x1="456.27768"
         style="fill:none;fill-opacity:0;stroke:#000000;stroke-width:3.54330707;stroke-dasharray:7.0866142" />
      <line
         id="line3781"
         y2="217.7943"
         x2="491.71075"
         y1="465.82581"
         x1="491.71075"
         style="fill:none;fill-opacity:0;stroke:#000000;stroke-width:3.54330707;stroke-dasharray:7.0866142" />
      <line
         id="line3783"
         y2="217.7943"
         x2="527.1438"
         y1="465.82581"
         x1="527.1438"
         style="fill:none;fill-opacity:0;stroke:#000000;stroke-width:3.54330707;stroke-dasharray:7.0866142" />
      <line
         id="line3785"
         y2="217.7943"
         x2="562.5769"
         y1="465.82581"
         x1="562.5769"
         style="fill:none;fill-opacity:0;stroke:#000000;stroke-width:3.54330707;stroke-dasharray:7.0866142" />
      <line
         id="line3787"
         y2="217.7943"
         x2="598.00995"
         y1="465.82581"
         x1="598.00995"
         style="fill:none;fill-opacity:0;stroke:#000000;stroke-width:3.54330707;stroke-dasharray:7.0866142" />
      <text
         id="text3789"
         y="501.25888"
         x="598.00995"
         style="font-size:42.51968765px;font-style:normal;font-weight:normal;text-anchor:start;fill:#000000;font-family:sans">t</text>
      <path
         id="path3791"
         d="M 137.38003,465.82579 C 147.96743,465.82579 172.8131,146.92815 243.67925,324.09351 C 314.54539,501.25886 349.97846,76.062013 420.84461,288.66044 C 491.71075,501.25886 527.14382,217.79429 598.00996,359.52658"
         style="fill:none;fill-opacity:0;stroke:#c1c1c1;stroke-width:3.54330707" />
      <line
         id="line3793"
         y2="321.38644"
         x2="172.81311"
         y1="465.82581"
         x1="172.81311"
         style="fill:none;fill-opacity:0;stroke:#ff0000;stroke-width:3.54330707" />
      <polyline
         id="polyline3795"
         points="2.25,-9.6882 2,-10.1882 1.75,-9.6882 "
         style="fill:none;fill-opacity:0;stroke:#ff0000;stroke-width:0.1"
         transform="matrix(35.433071,0,0,35.433071,101.94696,678.42422)" />
      <line
         id="line3797"
         y2="278.86676"
         x2="208.24617"
         y1="465.82581"
         x1="208.24617"
         style="fill:none;fill-opacity:0;stroke:#ff0000;stroke-width:3.54330707" />
      <polyline
         id="polyline3799"
         points="3.25,-10.8882 3,-11.3882 2.75,-10.8882 "
         style="fill:none;fill-opacity:0;stroke:#ff0000;stroke-width:0.1"
         transform="matrix(35.433071,0,0,35.433071,101.94696,678.42422)" />
      <line
         id="line3801"
         y2="332.01669"
         x2="243.67924"
         y1="465.82581"
         x1="243.67924"
         style="fill:none;fill-opacity:0;stroke:#ff0000;stroke-width:3.54330707" />
      <polyline
         id="polyline3803"
         points="4.25,-9.3882 4,-9.8882 3.75,-9.3882 "
         style="fill:none;fill-opacity:0;stroke:#ff0000;stroke-width:0.1"
         transform="matrix(35.433071,0,0,35.433071,101.94696,678.42422)" />
      <line
         id="line3805"
         y2="376.53128"
         x2="279.1123"
         y1="465.82581"
         x1="279.1123"
         style="fill:none;fill-opacity:0;stroke:#ff0000;stroke-width:3.54330707" />
      <polyline
         id="polyline3807"
         points="5.25,-8.1319 5,-8.6319 4.75,-8.1319 "
         style="fill:none;fill-opacity:0;stroke:#ff0000;stroke-width:0.1"
         transform="matrix(35.433071,0,0,35.433071,101.94696,678.42422)" />
      <line
         id="line3809"
         y2="338.10059"
         x2="314.75372"
         y1="465.82581"
         x1="314.54538"
         style="fill:none;fill-opacity:0;stroke:#ff0000;stroke-width:3.54330707" />
      <polyline
         id="polyline3811"
         points="6.25525,-9.21609 6.00607,-9.7165 5.75525,-9.21691 "
         style="fill:none;fill-opacity:0;stroke:#ff0000;stroke-width:0.1"
         transform="matrix(35.433071,0,0,35.433071,101.94696,678.42422)" />
      <line
         id="line3813"
         y2="264.69351"
         x2="349.97845"
         y1="465.82581"
         x1="349.97845"
         style="fill:none;fill-opacity:0;stroke:#ff0000;stroke-width:3.54330707" />
      <polyline
         id="polyline3815"
         points="7.25,-11.2882 7,-11.7882 6.75,-11.2882 "
         style="fill:none;fill-opacity:0;stroke:#ff0000;stroke-width:0.1"
         transform="matrix(35.433071,0,0,35.433071,101.94696,678.42422)" />
      <line
         id="line3817"
         y2="236.34705"
         x2="385.41153"
         y1="465.82581"
         x1="385.41153"
         style="fill:none;fill-opacity:0;stroke:#ff0000;stroke-width:3.54330707" />
      <polyline
         id="polyline3819"
         points="8.25,-12.0882 8,-12.5882 7.75,-12.0882 "
         style="fill:none;fill-opacity:0;stroke:#ff0000;stroke-width:0.1"
         transform="matrix(35.433071,0,0,35.433071,101.94696,678.42422)" />
      <line
         id="line3821"
         y2="296.58328"
         x2="420.8446"
         y1="465.82581"
         x1="420.8446"
         style="fill:none;fill-opacity:0;stroke:#ff0000;stroke-width:3.54330707" />
      <polyline
         id="polyline3823"
         points="9.25,-10.3882 9,-10.8882 8.75,-10.3882 "
         style="fill:none;fill-opacity:0;stroke:#ff0000;stroke-width:0.1"
         transform="matrix(35.433071,0,0,35.433071,101.94696,678.42422)" />
      <line
         id="line3825"
         y2="369.15729"
         x2="456.48322"
         y1="465.82581"
         x1="456.27768"
         style="fill:none;fill-opacity:0;stroke:#ff0000;stroke-width:3.54330707" />
      <polyline
         id="polyline3827"
         points="10.255,-8.33947 10.0061,-8.84001 9.75499,-8.34054 "
         style="fill:none;fill-opacity:0;stroke:#ff0000;stroke-width:0.1"
         transform="matrix(35.433071,0,0,35.433071,101.94696,678.42422)" />
      <line
         id="line3829"
         y2="373.85217"
         x2="491.50522"
         y1="465.82581"
         x1="491.71075"
         style="fill:none;fill-opacity:0;stroke:#ff0000;stroke-width:3.54330707" />
      <polyline
         id="polyline3831"
         points="11.2451,-8.20807 10.9939,-8.70751 10.7451,-8.20695 "
         style="fill:none;fill-opacity:0;stroke:#ff0000;stroke-width:0.1"
         transform="matrix(35.433071,0,0,35.433071,101.94696,678.42422)" />
      <line
         id="line3833"
         y2="341.43091"
         x2="527.3493"
         y1="465.82581"
         x1="527.1438"
         style="fill:none;fill-opacity:0;stroke:#ff0000;stroke-width:3.54330707" />
      <polyline
         id="polyline3835"
         points="12.2552,-9.12209 12.006,-9.62251 11.7552,-9.12292 "
         style="fill:none;fill-opacity:0;stroke:#ff0000;stroke-width:0.1"
         transform="matrix(35.433071,0,0,35.433071,101.94696,678.42422)" />
      <line
         id="line3837"
         y2="326.37222"
         x2="562.36432"
         y1="465.82581"
         x1="562.5769"
         style="fill:none;fill-opacity:0;stroke:#ff0000;stroke-width:3.54330707" />
      <polyline
         id="polyline3839"
         points="13.2446,-9.54788 12.9939,-10.0475 12.7446,-9.54712 "
         style="fill:none;fill-opacity:0;stroke:#ff0000;stroke-width:0.1"
         transform="matrix(35.433071,0,0,35.433071,101.94696,678.42422)" />
      <line
         id="line3841"
         y2="367.44977"
         x2="598.00995"
         y1="465.82581"
         x1="598.00995"
         style="fill:none;fill-opacity:0;stroke:#ff0000;stroke-width:3.54330707" />
      <polyline
         id="polyline3843"
         points="14.25,-8.3882 14,-8.8882 13.75,-8.3882 "
         style="fill:none;fill-opacity:0;stroke:#ff0000;stroke-width:0.1"
         transform="matrix(35.433071,0,0,35.433071,101.94696,678.42422)" />
      <text
         style="font-size:42.51968765px;font-style:normal;font-weight:normal;text-anchor:start;fill:#000000;font-family:sans"
         x="62.629105"
         y="250.74106"
         id="text4118">f(t)</text>
    </g>
  </g>
</svg>
