/* XPM */
static char * psychosynth_xpm[] = {
"32 32 253 2",
"  	c None",
". 	c #A1BC40",
"+ 	c #9FBB3C",
"@ 	c #A0BC3D",
"# 	c #9FBC3D",
"$ 	c #ACA336",
"% 	c #9DBC3E",
"& 	c #BFA72B",
"* 	c #9FC03D",
"= 	c #CD601F",
"- 	c #C33127",
"; 	c #91B0D0",
"> 	c #D3DFEC",
", 	c #D0DDEB",
"' 	c #D0E1F0",
") 	c #CB431B",
"! 	c #A6CA39",
"~ 	c #89ABCD",
"{ 	c #86A9CD",
"] 	c #C0D28B",
"^ 	c #EEF35E",
"/ 	c #C0D28E",
"( 	c #A8C1A7",
"_ 	c #89AAD8",
": 	c #D1DEF5",
"< 	c #D0DDEA",
"[ 	c #C77E21",
"} 	c #A6C652",
"| 	c #CFDD9A",
"1 	c #B9CEB0",
"2 	c #8DAEC3",
"3 	c #F2F55A",
"4 	c #FEFE4E",
"5 	c #FFFF4B",
"6 	c #FFFF48",
"7 	c #FFFF44",
"8 	c #FFFF40",
"9 	c #B89C32",
"0 	c #9EBC3F",
"a 	c #ABC355",
"b 	c #BACF84",
"c 	c #8EAFC4",
"d 	c #89ABCC",
"e 	c #FCFD4E",
"f 	c #FFFF4E",
"g 	c #FEFC4E",
"h 	c #F4F450",
"i 	c #D4E147",
"j 	c #B3C940",
"k 	c #99B73A",
"l 	c #88AACD",
"m 	c #F5F54A",
"n 	c #FEFF4E",
"o 	c #FFFF4D",
"p 	c #FFFF50",
"q 	c #F7F74D",
"r 	c #A5BFAD",
"s 	c #8CADC9",
"t 	c #99AD8D",
"u 	c #9A992B",
"v 	c #FFFF51",
"w 	c #FEFE4F",
"x 	c #FFFF52",
"y 	c #FEFE52",
"z 	c #FFFF4F",
"A 	c #CDD876",
"B 	c #86A9CF",
"C 	c #8AACCB",
"D 	c #394230",
"E 	c #ACAC34",
"F 	c #FCFC4E",
"G 	c #EFEF4C",
"H 	c #E6E649",
"I 	c #FBFB50",
"J 	c #FEFE51",
"K 	c #FFFF55",
"L 	c #616017",
"M 	c #89ADD3",
"N 	c #87A4B4",
"O 	c #171706",
"P 	c #60601E",
"Q 	c #F7F74B",
"R 	c #FEFE4D",
"S 	c #F8F84D",
"T 	c #999931",
"U 	c #3C3C12",
"V 	c #212109",
"W 	c #58591B",
"X 	c #EDEE4D",
"Y 	c #CECE42",
"Z 	c #000102",
"` 	c #85A8D1",
" .	c #D9E36C",
"..	c #3C3C10",
"+.	c #30300D",
"@.	c #F4F44A",
"#.	c #ECEE4A",
"$.	c #A2A232",
"%.	c #26260B",
"&.	c #232309",
"*.	c #87882C",
"=.	c #DEDE46",
"-.	c #E4E346",
";.	c #484816",
">.	c #5C5C1D",
",.	c #FDFF55",
"'.	c #67661D",
").	c #242D32",
"!.	c #87AACE",
"~.	c #A9C2A9",
"{.	c #FFFF49",
"].	c #5A5A1B",
"^.	c #181704",
"/.	c #E7E746",
"(.	c #EBEB4A",
"_.	c #3C3C13",
":.	c #55551A",
"<.	c #B9B93A",
"[.	c #F2F24C",
"}.	c #DCDE4A",
"|.	c #1D1E0C",
"1.	c #96952F",
"2.	c #1D1D0A",
"3.	c #89AACC",
"4.	c #E5ED69",
"5.	c #B7B83A",
"6.	c #141405",
"7.	c #4A4910",
"8.	c #A0A033",
"9.	c #757524",
"0.	c #3D3D12",
"a.	c #AEAE36",
"b.	c #FDFD51",
"c.	c #3E3E13",
"d.	c #5B5A1B",
"e.	c #414F57",
"f.	c #8BADCF",
"g.	c #9FBBB4",
"h.	c #FCFD50",
"i.	c #D7D943",
"j.	c #58581C",
"k.	c #2E2E0D",
"l.	c #807F27",
"m.	c #E9EB4E",
"n.	c #F8FA54",
"o.	c #8B892C",
"p.	c #444619",
"q.	c #7390AC",
"r.	c #88AACC",
"s.	c #82A6D3",
"t.	c #DFEA73",
"u.	c #FFFF4C",
"v.	c #FFFF53",
"w.	c #BACF46",
"x.	c #11151F",
"y.	c #84A5C6",
"z.	c #8FAFCF",
"A.	c #8EAFCF",
"B.	c #86ABD6",
"C.	c #93911F",
"D.	c #FEFE50",
"E.	c #4D4C18",
"F.	c #4A5C6B",
"G.	c #8AADD0",
"H.	c #C4D5E5",
"I.	c #CFDDEB",
"J.	c #94B2D1",
"K.	c #8FB5DD",
"L.	c #2C2800",
"M.	c #272500",
"N.	c #4D4C09",
"O.	c #A7A72E",
"P.	c #D9D941",
"Q.	c #F1F14C",
"R.	c #E1E147",
"S.	c #1A1B0B",
"T.	c #CADAE9",
"U.	c #D2E0EC",
"V.	c #B7CCE1",
"W.	c #93B2D0",
"X.	c #312D00",
"Y.	c #343200",
"Z.	c #312F00",
"`.	c #3B3902",
" +	c #4B4908",
".+	c #707017",
"++	c #BDB935",
"@+	c #F0F04E",
"#+	c #FDFE52",
"$+	c #FFFF54",
"%+	c #9F9F31",
"&+	c #394854",
"*+	c #8DB0D3",
"=+	c #D2DEEC",
"-+	c #C6D7E7",
";+	c #7A99B5",
">+	c #55624F",
",+	c #474D2B",
"'+	c #3A3B0C",
")+	c #353300",
"!+	c #343100",
"~+	c #2D2C00",
"{+	c #302E00",
"]+	c #6E6D17",
"^+	c #C3C33C",
"/+	c #E1E24A",
"(+	c #F6F751",
"_+	c #FEFF56",
":+	c #F9FB57",
"<+	c #FFFF56",
"[+	c #1D1E0E",
"}+	c #7997B4",
"|+	c #84A8CB",
"1+	c #8AADD1",
"2+	c #89ABCE",
"3+	c #7E9CB5",
"4+	c #789293",
"5+	c #576554",
"6+	c #3A3B0D",
"7+	c #322F00",
"8+	c #3E3C05",
"9+	c #55540D",
"0+	c #868624",
"a+	c #C6C53C",
"b+	c #A8A836",
"c+	c #1D2429",
"d+	c #87A9C9",
"e+	c #8BAED4",
"f+	c #8CAECB",
"g+	c #6B8185",
"h+	c #596758",
"i+	c #434519",
"j+	c #383706",
"k+	c #353200",
"l+	c #323000",
"m+	c #2F2D00",
"n+	c #1A1800",
"o+	c #536779",
"p+	c #8AADCF",
"q+	c #94B3D1",
"r+	c #89ACCF",
"s+	c #88A8C2",
"t+	c #7C99AF",
"u+	c #647985",
"v+	c #4C5436",
"w+	c #343300",
"x+	c #333000",
"y+	c #272911",
"z+	c #8BADD1",
"A+	c #87AACC",
"B+	c #8CB0D6",
"C+	c #607068",
"D+	c #596A66",
"                                . + @ # $                       ",
"                                  @ @ % &                       ",
"                                    # * =                       ",
"                                        -                       ",
"                              ; > , ' ) !                       ",
"                  ~ { ] ^ / ( _ : <   [ } | 1                   ",
"                ~ ~ 2 3 4 5 6 7 8     9 0 a b c                 ",
"            ~ ~ ~ d   e f f f f f f g h i j k     ~ ~           ",
"          ~ ~ ~ l   m n f f f f f o f 4 f p q     r s           ",
"        ~ ~ ~     t u f f f f f o o f f v w v x y z A B ~       ",
"        ~ ~     C D E f f f f o f x p F G H I x J K L M ~       ",
"      ~ ~     d N O P Q f f R p z S T U V O W X x Y Z     ~     ",
"      ~ ~     `  ...+.@.R R v #.$.%.&.*.=.-.;.>.,.'.).    ~     ",
"    ~ ~ ~ ~ !.~.{.].^./.v p (._.:.<.[.x x x }.|.1.2.3.    ~ ~   ",
"    ~ ~   d C 4.f 5.6.7.8.9.0.a.x x w x y v b.c.d.e.f.    ~ ~   ",
"    ~ ~   l g.h.o f i.j.k.l.m.p v J x v v n.n.o.p.q.r.~   ~ ~   ",
"    ~ ~   s.t.u.z J f v.v v.f y x x x x y v v.w.x.y.~ ~   z.A.  ",
"    ~ r.  B.C.q x z f D.x f x v x x x x x x K E.F.G.~ ~   H.I.  ",
"    r.J.  K.L.M.N.O.P.Q.f v.x J x x x x v J R.S.r.r.~     T.U.V.",
"    W.r.~   X.Y.Y.Z.`. +.+++@+K x v v v #+$+%+&+*+~ ~     =+-+  ",
"      ~ ~   ;+>+,+'+)+Y.!+~+{+]+^+/+(+_+:+<+[+}+r.~ ~     |+    ",
"      ~ ~ r.  1+2+3+4+5+6+7+!+Y.Z.8+9+0+a+b+c+d+~ ~     ~       ",
"      ~ ~ r.  ~ ~ d 2+e+f+g+h+i+j+Y.k+l+m+n+o+p+~     ~ ~       ",
"          q+r.    ~ ~ d ~ r+r+s+t+u+v+w+x+y+z+      ~ ~         ",
"          A+r.J.A+    ~ ~ ~ ~ ~ r.p+B+3+C+D+      ~ ~           ",
"              r.~ ~ ~       ~ ~ ~ ~           ~ ~               ",
"              ~ ~ ~ ~ ~                     ~ ~ ~               ",
"                    ~ ~       ~ ~ ~ ~ ~ ~                       ",
"                              ~ ~ ~                             ",
"                                                                ",
"                                                                ",
"                                                                "};
